<svg width="16" height="16" viewBox="0 0 16 16" fill="none" xmlns="http://www.w3.org/2000/svg">
<path d="M9.74982 6.83328H7.99982V5.08328C7.99982 4.92857 7.93836 4.7802 7.82897 4.6708C7.71957 4.5614 7.5712 4.49994 7.41649 4.49994C7.26178 4.49994 7.11341 4.5614 7.00401 4.6708C6.89461 4.7802 6.83316 4.92857 6.83316 5.08328V6.83328H5.08316C4.92845 6.83328 4.78007 6.89474 4.67068 7.00413C4.56128 7.11353 4.49982 7.2619 4.49982 7.41661C4.49982 7.57132 4.56128 7.71969 4.67068 7.82909C4.78007 7.93849 4.92845 7.99994 5.08316 7.99994H6.83316V9.74994C6.83316 9.90465 6.89461 10.053 7.00401 10.1624C7.11341 10.2718 7.26178 10.3333 7.41649 10.3333C7.5712 10.3333 7.71957 10.2718 7.82897 10.1624C7.93836 10.053 7.99982 9.90465 7.99982 9.74994V7.99994H9.74982C9.90453 7.99994 10.0529 7.93849 10.1623 7.82909C10.2717 7.71969 10.3332 7.57132 10.3332 7.41661C10.3332 7.2619 10.2717 7.11353 10.1623 7.00413C10.0529 6.89474 9.90453 6.83328 9.74982 6.83328ZM13.664 12.8358L11.4998 10.6891C12.3399 9.64168 12.7467 8.3122 12.6366 6.97404C12.5266 5.63587 11.908 4.39073 10.908 3.49465C9.90812 2.59857 8.60288 2.11966 7.26069 2.15639C5.91851 2.19311 4.64141 2.74269 3.69199 3.69211C2.74257 4.64153 2.19299 5.91863 2.15626 7.26082C2.11954 8.603 2.59845 9.90824 3.49453 10.9082C4.39061 11.9081 5.63575 12.5267 6.97391 12.6368C8.31208 12.7468 9.64156 12.34 10.689 11.4999L12.8357 13.6466C12.8899 13.7013 12.9544 13.7447 13.0255 13.7743C13.0966 13.8039 13.1728 13.8192 13.2498 13.8192C13.3268 13.8192 13.4031 13.8039 13.4742 13.7743C13.5452 13.7447 13.6098 13.7013 13.664 13.6466C13.7691 13.5378 13.8279 13.3925 13.8279 13.2412C13.8279 13.0899 13.7691 12.9446 13.664 12.8358ZM7.41649 11.4999C6.60888 11.4999 5.81941 11.2605 5.14791 10.8118C4.47641 10.3631 3.95304 9.72537 3.64398 8.97924C3.33492 8.2331 3.25406 7.41208 3.41162 6.61999C3.56917 5.8279 3.95807 5.10032 4.52914 4.52926C5.1002 3.95819 5.82778 3.56929 6.61987 3.41174C7.41196 3.25418 8.23298 3.33504 8.97911 3.6441C9.72525 3.95316 10.363 4.47653 10.8117 5.14803C11.2603 5.81953 11.4998 6.609 11.4998 7.41661C11.4998 8.49958 11.0696 9.53819 10.3038 10.304C9.53807 11.0697 8.49946 11.4999 7.41649 11.4999Z" fill="currentColor"/>
</svg>
